<?xml version="1.0" encoding="UTF-8" standalone="no"?><svg xmlns="http://www.w3.org/2000/svg" xmlns:xlink="http://www.w3.org/1999/xlink" fill="#fdfdfd" height="120.5" preserveAspectRatio="xMidYMid meet" version="1" viewBox="0.0 -0.5 120.0 120.5" width="120" zoomAndPan="magnify"><g id="change1_1"><path d="M0 0L0 0" fill="inherit" stroke="#449fdb"/></g><g id="change1_3"><path d="M117.5 61.5c1.384 0 2.5-0.616 2.5-2s-1.116-2-2.5-2h-19v-16h19c1.384 0 2.5-0.616 2.5-2s-1.116-2-2.5-2h-19v-12.5c0-1.38-2.116-3.5-3.5-3.5h-12.5v-19c0-1.384-0.616-2.5-2-2.5s-2 1.12-2 2.5v19h-16v-19c0-1.384-0.616-2.5-2-2.5s-2 1.12-2 2.5v19h-16v-19c0-1.384-0.616-2.5-2-2.5s-2 1.12-2 2.5v19h-13.5c-1.384 0-2.5 2.116-2.5 3.5v12.5h-20c-1.384 0-2.5 0.616-2.5 2s1.116 2 2.5 2h20v16h-20c-1.384 0-2.5 0.616-2.5 2s1.116 2 2.5 2h20v16h-20c-1.384 0-2.5 0.616-2.5 2s1.116 2 2.5 2h20v13.5c0 1.384 1.116 2.5 2.5 2.5h13.5v20c0 1.384 0.616 2.5 2 2.5s2-1.116 2-2.5v-20h16v20c0 1.384 0.616 2.5 2 2.5s2-1.116 2-2.5v-20h16v20c0 1.384 0.616 2.5 2 2.5s2-1.116 2-2.5v-20h12.5c1.384 0 3.5-1.116 3.5-2.5v-13.5h19c1.384 0 2.5-0.616 2.5-2s-1.116-2-2.5-2h-19v-16h19zM82.5 79c0 1.384-1.12 2.5-2.5 2.5h-39c-1.38 0-2.5-1.116-2.5-2.5v-39c0-1.38 1.12-2.5 2.5-2.5h39c1.38 0 2.5 1.116 2.5 2.5v39z" fill="inherit"/></g><g id="change1_2"><path d="M42.5 41.5h36v36h-36v-36z" fill="inherit"/></g></svg>