<?xml version="1.0" encoding="UTF-8" standalone="no"?><svg xmlns="http://www.w3.org/2000/svg" xmlns:xlink="http://www.w3.org/1999/xlink" fill="#fdfdfd" height="92.5" preserveAspectRatio="xMidYMid meet" version="1" viewBox="0.0 0.0 73.4 92.5" width="73.4" zoomAndPan="magnify"><g><g id="change1_1"><path d="M36.36,10.27c-1.1,0-2-0.9-2-2V2c0-1.1,0.9-2,2-2s2,0.9,2,2v6.27C38.36,9.37,37.46,10.27,36.36,10.27z" fill="inherit"/></g></g><g><g id="change1_2"><path d="M71.45,33.35h-6.27c-1.1,0-2-0.9-2-2s0.9-2,2-2h6.27c1.1,0,2,0.9,2,2S72.55,33.35,71.45,33.35z" fill="inherit"/></g></g><g><g id="change1_5"><path d="M8.27,33.35H2c-1.1,0-2-0.9-2-2s0.9-2,2-2h6.27c1.1,0,2,0.9,2,2S9.37,33.35,8.27,33.35z" fill="inherit"/></g></g><g><g id="change1_8"><path d="M16.11,18.85c-0.51,0-1.02-0.2-1.41-0.59l-4.43-4.43c-0.78-0.78-0.78-2.05,0-2.83c0.78-0.78,2.05-0.78,2.83,0l4.43,4.43 c0.78,0.78,0.78,2.05,0,2.83C17.13,18.65,16.62,18.85,16.11,18.85z" fill="inherit"/></g></g><g><g id="change1_7"><path d="M57.06,18.85c-0.51,0-1.02-0.2-1.41-0.59c-0.78-0.78-0.78-2.05,0-2.83L60.08,11c0.78-0.78,2.05-0.78,2.83,0 c0.78,0.78,0.78,2.05,0,2.83l-4.43,4.43C58.09,18.65,57.58,18.85,57.06,18.85z" fill="inherit"/></g></g><g id="change1_9"><path d="M49.62,66.62h-25.4c-1.1,0-2-0.9-2-2v-1.09c0-4.33-1.47-8.62-4.25-12.42c-2.96-4.04-4.53-8.83-4.53-13.85 c0-6.45,2.7-12.69,7.41-17.11c4.77-4.48,11.02-6.73,17.57-6.32C50.55,14.59,60.2,24.71,60.4,36.87l0,0 c0.09,5.39-1.6,10.49-4.89,14.74c-2.5,3.24-3.88,7.49-3.88,11.97v1.05C51.62,65.73,50.73,66.62,49.62,66.62z M26.21,62.62h21.44 c0.19-5.01,1.84-9.76,4.7-13.46c2.73-3.53,4.13-7.76,4.06-12.23l0,0c-0.17-10.09-8.17-18.49-18.23-19.11 c-5.44-0.34-10.62,1.52-14.58,5.24c-3.96,3.72-6.15,8.77-6.15,14.2c0,4.17,1.3,8.14,3.75,11.49 C24.29,52.98,26.01,57.76,26.21,62.62z" fill="inherit"/></g><g id="change1_6"><path d="M49.86,74.33H23.99c-1.1,0-2-0.9-2-2s0.9-2,2-2h25.86c1.1,0,2,0.9,2,2S50.96,74.33,49.86,74.33z" fill="inherit"/></g><g id="change1_3"><path d="M36.92,92.49c-6.33,0-11.49-5.15-11.49-11.49v-1.53c0-1.1,0.9-2,2-2h18.97c1.1,0,2,0.9,2,2V81 C48.41,87.34,43.26,92.49,36.92,92.49z M29.45,81.47c0.24,3.91,3.5,7.02,7.47,7.02s7.23-3.11,7.47-7.02H29.45z" fill="inherit"/></g><g id="change1_4"><path d="M40.77,66.62h-7.69c-0.92,0-1.72-0.62-1.94-1.51L25.5,42.65c-0.2-0.79,0.1-1.62,0.75-2.1c0.65-0.48,1.53-0.52,2.23-0.1 l3.48,2.11l3.19-6.22c0.34-0.67,1.03-1.09,1.78-1.09s1.44,0.42,1.78,1.09l3.19,6.22l3.48-2.11c0.69-0.42,1.57-0.38,2.23,0.1 c0.65,0.48,0.95,1.31,0.75,2.1l-5.64,22.46C42.49,66,41.69,66.62,40.77,66.62z M34.64,62.62h4.58l4.07-16.22l-1.15,0.7 c-0.48,0.29-1.05,0.37-1.58,0.22c-0.53-0.15-0.98-0.52-1.24-1.01l-2.39-4.67l-2.39,4.67c-0.25,0.49-0.7,0.86-1.24,1.01 c-0.53,0.15-1.11,0.07-1.58-0.22l-1.15-0.7L34.64,62.62z" fill="inherit"/></g></svg>