<?xml version="1.0" encoding="UTF-8" standalone="no"?><svg xmlns="http://www.w3.org/2000/svg" xmlns:xlink="http://www.w3.org/1999/xlink" clip-rule="evenodd" fill="#000000" fill-rule="evenodd" height="153.1" image-rendering="optimizeQuality" preserveAspectRatio="xMidYMid meet" shape-rendering="geometricPrecision" text-rendering="geometricPrecision" version="1" viewBox="10.2 10.2 153.1 153.1" width="153.1" zoomAndPan="magnify"><defs><linearGradient gradientUnits="userSpaceOnUse" id="a" x1="53.756" x2="119.641" xlink:actuate="onLoad" xlink:show="other" xlink:type="simple" y1="96.829" y2="109.719"><stop offset="0" stop-color="#ffffff"/><stop offset="0.502" stop-color="#ffffff"/><stop offset="1" stop-color="#ffffff"/></linearGradient><linearGradient gradientUnits="userSpaceOnUse" id="b" x1="-0.071" x2="173.469" xlink:actuate="onLoad" xlink:href="#a" xlink:show="other" xlink:type="simple" y1="53.523" y2="119.875"/><linearGradient gradientUnits="userSpaceOnUse" id="d" x1="25.109" x2="148.288" xlink:actuate="onLoad" xlink:href="#a" xlink:show="other" xlink:type="simple" y1="63.15" y2="110.247"/><linearGradient gradientUnits="userSpaceOnUse" id="c" x1="68.552" x2="104.845" xlink:actuate="onLoad" xlink:href="#a" xlink:show="other" xlink:type="simple" y1="62.95" y2="76.826"/></defs><g><path d="M77.9909 160.882l17.9299 0 0 -12.1322c0,-0.5754 0.416,-1.0664 0.9839,-1.1612 9.3474,-1.5557 18.3527,-5.332 26.0428,-10.9212 0.4688,-0.341 1.1155,-0.2897 1.5248,0.1199l8.525 8.5246 12.6782 -12.6786 -8.5841 -8.584c-0.4072,-0.407 -0.4603,-1.0481 -0.1257,-1.5163 5.5239,-7.7355 9.2249,-16.7715 10.7026,-26.1326 0.0902,-0.5722 0.5835,-0.9938 1.163,-0.9938l12.051 -0.0007 0 -17.9295 -12.1325 0c-0.5755,0 -1.0668,-0.4158 -1.1615,-0.9836 -1.5555,-9.3479 -5.3321,-18.3529 -10.9213,-26.0428 -0.3406,-0.4689 -0.2898,-1.1152 0.1199,-1.5249l8.5247 -8.525 -12.6783 -12.6785 -8.584 8.5846c-0.407,0.4064 -1.0488,0.4601 -1.5168,0.1257 -7.735,-5.5243 -16.7714,-9.225 -26.1322,-10.7026 -0.5724,-0.0906 -0.9941,-0.5837 -0.9941,-1.1631l0 -12.0511 -17.9299 0 0 12.1363c0,0.5754 -0.4161,1.0673 -0.984,1.1619 -9.343,1.5543 -18.3475,5.3303 -26.0403,10.9198 -0.4684,0.3403 -1.1151,0.2896 -1.5249,-0.1199l-8.527 -8.5274 -12.6784 12.678 8.5858 8.586c0.4069,0.4071 0.4601,1.0487 0.1255,1.5169 -5.5264,7.7362 -9.2283,16.7721 -10.7055,26.1307 -0.0903,0.5721 -0.5836,0.9938 -1.163,0.9938l-12.0497 -0.0001 0 17.9296 12.1325 0c0.5757,0 1.0669,0.4165 1.1614,0.9844 1.5558,9.3471 5.3322,18.3528 10.9215,26.0427 0.3404,0.4682 0.2895,1.1152 -0.12,1.5248l-8.5247 8.525 12.6783 12.6779 8.5841 -8.584c0.4069,-0.407 1.0487,-0.4597 1.5168,-0.1254 7.7351,5.524 16.7712,9.225 26.1324,10.7022 0.5721,0.0901 0.9937,0.5839 0.9937,1.1632l0.0001 12.0505zm19.1074 2.3554l-20.2849 0c-0.6503,0 -1.1775,-0.5273 -1.1775,-1.1774l0 -12.2305c-9.0376,-1.5772 -17.7526,-5.1465 -25.3224,-10.3734l-8.7169 8.7176c-0.4419,0.4415 -1.2237,0.4415 -1.6654,0l-14.3435 -14.3441c-0.4598,-0.4595 -0.4598,-1.2048 0,-1.6648l8.6518 -8.6523c-5.2896,-7.5277 -8.931,-16.2123 -10.5817,-25.2365l-12.3204 0c-0.6503,0 -1.1775,-0.5274 -1.1775,-1.1774l0 -20.2852c0,-0.6506 0.5272,-1.1771 1.1775,-1.1771l12.2293 -0.0007c1.5761,-9.0351 5.1472,-17.7496 10.376,-25.3203l-8.7188 -8.7188c-0.2208,-0.2208 -0.3449,-0.5199 -0.3449,-0.8322 0.0001,-0.313 0.1241,-0.6119 0.3449,-0.8327l14.3435 -14.344c0.4599,-0.4594 1.2053,-0.4592 1.6652,0.0005l8.6546 8.6538c7.53,-5.2889 16.2143,-8.9301 25.2341,-10.5798l0.0001 -12.3247c0,-0.6499 0.5274,-1.1771 1.1774,-1.1771l20.2849 -0.0006c0.6503,0 1.1774,0.5278 1.1774,1.178l0.0001 12.2305c9.0379,1.5765 17.7526,5.1468 25.3224,10.3734l8.7172 -8.7176c0.4415,-0.4415 1.2234,-0.4414 1.665,0.0002l14.3436 14.3433c0.46,0.4594 0.4599,1.2057 -0.0001,1.6655l-8.6518 8.6515c5.2897,7.5284 8.9312,16.2132 10.5818,25.2373l12.3204 -0.0001c0.6504,0 1.1774,0.5274 1.1774,1.1775l0.0001 20.2845c0,0.6506 -0.5271,1.1778 -1.1775,1.1778l-12.2306 -0.0001c-1.5763,9.0379 -5.1468,17.7528 -10.3729,25.3225l8.7171 8.7166c0.2208,0.2208 0.3447,0.5207 0.3447,0.8331 0,0.3122 -0.1239,0.6118 -0.3447,0.8326l-14.3435 14.3432c-0.46,0.4595 -1.2054,0.46 -1.6654,0.0003l-8.6519 -8.6519c-7.5283,5.2897 -16.2127,8.9313 -25.2368,10.5818l0 12.32c0,0.6499 -0.5275,1.178 -1.1774,1.1778z" fill="url(#b)"/><path d="M86.6985 56.2366c-7.5274,0 -13.6517,6.1245 -13.6517,13.6519 0,7.5272 6.1243,13.6518 13.6517,13.6518 7.5278,-0.0003 13.6518,-6.1244 13.6518,-13.6518 0,-7.5275 -6.124,-13.6517 -13.6518,-13.6519zm0 29.6582c-8.826,0 -16.0067,-7.1802 -16.0067,-16.0063 0,-8.8266 7.1807,-16.0067 16.0067,-16.0067 8.8264,-0.0006 16.0067,7.1807 16.0067,16.0067 0,8.8256 -7.1803,16.0067 -16.0067,16.0063z" fill="url(#c)"/><path d="M57.3301 117.161l58.7372 0 0 -9.2332c0,-9.6844 -7.4205,-17.6902 -17.003,-18.4829 -3.055,3.7214 -7.5262,5.8432 -12.3658,5.8432 -4.8395,-0.0003 -9.3105,-2.1214 -12.3658,-5.8432 -9.5824,0.792 -17.0026,8.7987 -17.0026,18.4833l0 9.2328zm59.9146 2.3546l-61.0921 0c-0.6503,0 -1.1775,-0.5269 -1.1775,-1.1773l0 -10.4105c0,-11.1408 8.7139,-20.3098 19.8381,-20.875 0.3858,-0.0206 0.7626,0.1542 0.9981,0.4649 2.6082,3.4408 6.5766,5.4154 10.8872,5.4154 4.3107,0 8.279,-1.9741 10.8872,-5.4154 0.2355,-0.3109 0.6084,-0.4857 0.9984,-0.4649 11.124,0.5652 19.8378,9.7346 19.8378,20.8754l0 10.4098c0,0.6506 -0.5271,1.1778 -1.1772,1.1776z" fill="url(#a)"/><path d="M86.6985 34.7257c-28.6579,0 -51.9727,23.3152 -51.9727,51.9732 0,28.6574 23.3148,51.9726 51.9727,51.9726 28.6578,-0.0001 51.9726,-23.3149 51.9726,-51.9726 0.0001,-28.6582 -23.3149,-51.9726 -51.9726,-51.9732zm0 106.301c-29.9562,0 -54.3275,-24.371 -54.3275,-54.3273 0,-29.9566 24.3713,-54.3275 54.3275,-54.3275 29.9563,-0.0005 54.3276,24.3712 54.3276,54.3275 0,29.9559 -24.3713,54.3275 -54.3276,54.3273z" fill="url(#d)"/></g><path d="M0 0H173.397V173.397H0z" fill="none"/></svg>